<svg xmlns="http://www.w3.org/2000/svg" width="220.32" height="149.28"  fill="#037f04" xmlns:v="https://vecta.io/nano"><path d="M22.63.5a13.66 13.66 0 0 1 4.46-.5l168.09.05c3.09-.43 4.84 2.39 6.68 4.35 2.21 2.78 4.93 5.09 7.28 7.74 1.91 2.31.92 5.46 1.06 8.18-28 0-55.93-.1-83.9 0-.13 5.64.1 11.29-.27 16.93h-33V20.32l-83 .07c.19-2.88-.93-6.52 1.79-8.54C15.65 8.25 18.87 4.11 22.63.5zM10.21 21.93h34.9a69.39 69.39 0 0 1 0 8c-4.32.31-8.9-.59-13 1.19-4.51 1.88-9.55 2.53-13.66 5.31-2.69 1.43-4.94 3.82-8.16 4a149.76 149.76 0 0 1-.08-18.5zm164.86.44c11.62-1 23.33-.18 35-.41a68.53 68.53 0 0 1 0 8c-11.6.55-23.24 0-34.85 0a51.87 51.87 0 0 1-.15-7.59zM56.12 45.27c.79-2.55 3-5.41 6-5.26q14.59-.07 29.21 0v21.17H56.11c-.01-5.27-.24-10.6.01-15.91z"/><path d="M93 40.27c11-.75 22.1.32 33.15 0 .11 7 .3 14-.13 21q-16.52.18-33 0c-.11-7.04-.16-14.02-.02-21zm36-.22q14.55-.07 29.09 0c2.7-.08 4.12 2.78 5.85 4.44.64 5.55.27 11.19.08 16.76h-35c-.12-7.1-.02-14.15-.02-21.2zm-91.52 2.34c2.42-1.14 5.11-1.21 7.73-1.26v20.83c-7.71 7.45-14.87 15.59-22.89 22.75v41.46c-.5 3.59 3.3 5.31 5.16 7.81l162.7.06c3.06.52 4.83-2.38 6.62-4.33.46-10.17.08-20.39.21-30.58-.14-5.19.32-10.41-.23-15.58-6.84-7.55-14.49-14.35-21.45-21.78-.65-6.77-.33-13.77-.08-20.62 3.17.08 7 0 9.2 2.68l22.9 23a99.47 99.47 0 0 0 11.56 11.48c1.56 1.07 1.23 3.1 1.37 4.73v52.08a20.78 20.78 0 0 1-.34 4.66c-2.64 2.75-5.77 5-8.27 7.9-1.23 1.85-3.64 1.44-5.54 1.56-65.59-.1-131.17.13-196.75-.12-2.87-3.27-6.23-6.09-9.07-9.38-.51-1.48-.28-3.08-.35-4.61V83.04c.1-1.65-.16-3.63 1.34-4.75l28-28c2.64-2.73 4.9-5.9 8.16-8M56.23 63c11.68 0 23.38-.38 35 .24.18 6.9 0 13.81 0 20.72-11.73.72-23.5.17-35.25.33.07-7.06-.14-14.17.25-21.29zm36.77.17c11-.29 22-.41 33 .06a173.76 173.76 0 0 1 0 21c-11 0-22 .25-32.94-.14-.19-6.95-.22-13.94-.06-20.92zm36-.1c11.65-.21 23.31-.06 35-.07a216.6 216.6 0 0 1 0 21.32c-11.61 0-23.21.12-34.82-.11-.4-7.04-.18-14.1-.18-21.14zM56.18 86c11.7.14 23.43-.49 35.09.36l.09 16.73c-11.78.45-23.58.07-35.37.21.13-5.8-.15-11.57.19-17.3zm36.82.11c11-.33 22-.18 33-.12.5 5.7.13 11.42.28 17.13-11.09.21-22.2.27-33.3-.06L93 86.11z"/><path d="M129.06 86c11.65-.2 23.31-.07 35-.11.45 5.75.06 11.52.33 17.28-11.82.24-23.64-.28-35.46.05l.13-17.22zm-72.82 20l35 .08c.14 6.63 0 13.26.09 19.89-11.69.49-23.41.35-35.1 0a195.23 195.23 0 0 1 .01-19.97zm36.76.05h33c.43 6.66.2 13.33.23 20-11.07.41-22.15.12-33.22.17a542.5 542.5 0 0 1-.01-20.17zm36-.05q17.63 0 35.25 0c0 6.67.21 13.34-.17 20-11.71.15-23.42.39-35.13 0l.05-20z"/></svg>